<svg xmlns="http://www.w3.org/2000/svg" version="1.1" viewBox="-5.0 -10.0 110.0 135.0">
 <path fill="white" d="m69.703 46.219c-3.9336-2.6289-8.5625-4.0352-13.297-4.0312h-12.812c-6.3672 0.007812-12.473 2.5391-16.977 7.043-4.5078 4.5-7.043 10.605-7.0547 16.973v2.5469c0.003906 6.375 2.5352 12.488 7.043 17 4.5039 4.5117 10.613 7.0508 16.988 7.0625h12.812c6.375-0.007812 12.488-2.5469 16.996-7.0586 4.5039-4.5117 7.0352-10.629 7.0352-17.004v-2.5469c-0.015625-8.0352-4.043-15.535-10.734-19.984zm7.6094 22.531c0 4.4648-1.4258 8.8125-4.0703 12.41-2.6445 3.5977-6.3711 6.2578-10.633 7.5898v-11.031c4.2734-0.48828 7.5742-3.9844 7.8125-8.2812v-9.75c0-0.86328-0.69922-1.5625-1.5625-1.5625s-1.5625 0.69922-1.5625 1.5625v9.75c-0.19922 2.5703-2.1406 4.6641-4.6875 5.0625v-13.25c0-0.86328-0.69922-1.5625-1.5625-1.5625s-1.5625 0.69922-1.5625 1.5625v13.391c-2.7617-0.24609-4.9492-2.4414-5.1875-5.2031v-9.75c0-0.86328-0.69922-1.5625-1.5625-1.5625s-1.5625 0.69922-1.5625 1.5625v9.75c0 4.2656 3.625 7.8125 8.3125 8.3438v11.656c-1.0352 0.16406-2.0781 0.25-3.125 0.25h-12.766c-1.2227-0.011719-2.4375-0.125-3.6406-0.34375v-11.625h0.95312c3.168 0 5.7344-2.5664 5.7344-5.7344v-5.3438c-0.19531-4.5664-3.9531-8.168-8.5234-8.168-4.5703 0-8.3281 3.6016-8.5234 8.168v5.3438c0.007812 3.168 2.582 5.7344 5.75 5.7344h1.4844v10.828c-4.1016-1.4336-7.6562-4.1055-10.172-7.6484-2.5195-3.5391-3.8789-7.7734-3.8906-12.117v-2.5781c0.007813-5.5273 2.2031-10.828 6.1055-14.742 3.9023-3.9141 9.1953-6.125 14.723-6.1484h12.812c5.5352 0.015625 10.844 2.2227 14.758 6.1367 3.918 3.9141 6.1289 9.2188 6.1484 14.754zm-41.969 5.8438c-1.4453 0-2.6172-1.1641-2.625-2.6094v-5.3438c0.15625-2.8672 2.5273-5.1172 5.3984-5.1172 2.8711 0 5.2422 2.25 5.3984 5.1172v5.3438c0 1.4414-1.168 2.6094-2.6094 2.6094zm26.031-59.547-4.4219-0.65625c-0.42188-0.0625-0.78516-0.33203-0.96875-0.71875l-1.9688-4c-0.73047-1.5469-2.3047-2.5195-4.0156-2.4844-1.6641 0.007812-3.1758 0.96094-3.9062 2.4531l-2 3.9844c-0.1875 0.38672-0.55859 0.65625-0.98438 0.71875l-4.4219 0.625c-1.668 0.23438-3.0547 1.3945-3.582 2.9922-0.52734 1.6016-0.10156 3.3594 1.0977 4.5391l3.125 3.125c0.3125 0.29688 0.45312 0.73047 0.375 1.1562l-0.64062 4.4688c-0.28516 1.6562 0.39453 3.332 1.75 4.3281 1.3594 1.0195 3.1875 1.1602 4.6875 0.35938l3.9531-2.0625c0.38281-0.19531 0.83594-0.19531 1.2188 0l3.8281 2.0625c0.64062 0.33594 1.3555 0.51172 2.0781 0.51562 1.3086-0.003906 2.5508-0.58594 3.3906-1.5859 0.83984-1.0039 1.1953-2.3281 0.96875-3.6172l-0.73438-4.4062c-0.0625-0.41797 0.074219-0.84375 0.375-1.1406l3.2188-3.125c1.2031-1.1758 1.6406-2.9297 1.1289-4.5312-0.51562-1.6016-1.8867-2.7734-3.5508-3.0312zm0.25 5.3125-3.2188 3.125c-1.0469 1.0078-1.5273 2.4727-1.2812 3.9062l0.6875 4.3906c0.082031 0.48828-0.12109 0.98047-0.52344 1.2695-0.39844 0.28906-0.92969 0.32422-1.3672 0.089844l-3.8906-2.0938c-0.625-0.33203-1.3242-0.50781-2.0312-0.51562-0.71094 0.003906-1.4141 0.17188-2.0469 0.5l-3.9531 2.0625c-0.44141 0.23047-0.97656 0.1875-1.375-0.10938-0.40625-0.28516-0.60547-0.77734-0.51562-1.2656l0.78125-4.4062c0.25-1.4336-0.21875-2.8984-1.25-3.9219l-3.125-3.125c-0.34766-0.32031-0.48828-0.80469-0.375-1.2617 0.11328-0.46094 0.46484-0.82031 0.92188-0.94141l4.4219-0.625c1.457-0.19141 2.7266-1.0938 3.3906-2.4062l1.9844-4c0.22266-0.44141 0.67578-0.72266 1.1719-0.72266s0.94922 0.28125 1.1719 0.72266l1.9219 4.0156c0.63672 1.3086 1.875 2.2188 3.3125 2.4375l4.4219 0.65625c0.49219 0.070313 0.89844 0.41406 1.0469 0.89062 0.15234 0.44531 0.042969 0.94141-0.28125 1.2812zm-54.016 13.547-0.70312 4.0469c-0.26953 1.5703 0.37109 3.1602 1.6523 4.1016 1.2852 0.94531 2.9922 1.0781 4.4102 0.35156l3.6406-1.9062c0.3125-0.16406 0.6875-0.16406 1 0l3.625 1.9219c1.3945 0.77734 3.1172 0.6875 4.4219-0.23438 1.3008-0.93359 1.957-2.5312 1.6875-4.1094l-0.67188-4.0469c-0.066406-0.34766 0.050781-0.70312 0.3125-0.9375l2.9531-2.8594c1.1445-1.1133 1.5625-2.7773 1.0742-4.2969-0.48438-1.5234-1.793-2.6367-3.3711-2.875l-4.0625-0.59375c-0.35156-0.054688-0.65234-0.27734-0.8125-0.59375l-1.7969-3.6875c-0.71094-1.4297-2.168-2.3359-3.7656-2.3359s-3.0547 0.90625-3.7656 2.3359l-1.8281 3.5938c-0.15625 0.31641-0.46094 0.53516-0.8125 0.57812l-4.0625 0.57812c-1.5742 0.23047-2.8867 1.3281-3.3867 2.8398-0.5 1.5117-0.10156 3.1797 1.0273 4.3008l2.9375 2.8906c0.25 0.24219 0.36328 0.59375 0.29688 0.9375zm-1.3594-7.1406c0.10938-0.39453 0.44922-0.6875 0.85938-0.73438l4.0625-0.57812c1.3555-0.19531 2.5273-1.0508 3.125-2.2812l1.8281-3.6719c0.19531-0.40234 0.61719-0.63672 1.0625-0.59375 0.41406-0.011719 0.79297 0.23047 0.95312 0.60938l1.7969 3.6875c0.60547 1.2266 1.7734 2.082 3.125 2.2969l4.0625 0.60938c0.40234 0.0625 0.73047 0.34766 0.85938 0.73047 0.125 0.38672 0.023437 0.8125-0.26562 1.0977l-2.9531 2.8594c-0.99609 0.95703-1.457 2.3398-1.2344 3.7031l0.6875 4.0469c0.078125 0.40625-0.09375 0.81641-0.4375 1.0469-0.32422 0.25-0.76953 0.28125-1.125 0.078125l-3.625-1.9219c-1.2227-0.64062-2.6836-0.64062-3.9062 0l-3.5938 1.875c-0.35938 0.20312-0.80469 0.17578-1.1406-0.066406-0.33203-0.23828-0.5-0.65234-0.42188-1.0586l0.70312-4.0469c0.24609-1.3594-0.19922-2.7539-1.1875-3.7188l-2.9062-2.875c-0.32422-0.26172-0.45312-0.69531-0.32812-1.0938zm86.984-3.75-4.0625-0.59375c-0.3125-0.066406-0.57812-0.26562-0.73438-0.54688l-1.8125-3.6875c-0.69141-1.4805-2.1797-2.418-3.8125-2.4062-1.5938-0.011719-3.0508 0.89453-3.75 2.3281l-1.8438 3.6719c-0.15625 0.3125-0.45312 0.52734-0.79688 0.57812l-4.0625 0.57812c-1.5859 0.21875-2.9062 1.3242-3.4062 2.8438-0.50781 1.5156-0.10156 3.1875 1.0469 4.2969l2.9688 2.8906c0.26172 0.23438 0.37891 0.58984 0.3125 0.9375l-0.71875 4.0469c-0.27344 1.5742 0.36719 3.168 1.6562 4.1133 1.2891 0.94531 3.0039 1.0781 4.4219 0.33984l3.6406-1.9062c0.3125-0.16406 0.6875-0.16406 1 0l3.625 1.9219c0.60547 0.32422 1.2812 0.49609 1.9688 0.5 0.875 0.011719 1.7305-0.24609 2.4531-0.73438 1.293-0.94141 1.9414-2.5312 1.6719-4.1094l-0.67188-4.0469c-0.058594-0.34375 0.058594-0.69531 0.3125-0.9375l2.9531-2.8594c1.1445-1.1133 1.5625-2.7773 1.0742-4.2969-0.48438-1.5234-1.793-2.6367-3.3711-2.875zm0.125 4.9219-2.8906 2.8594c-1 0.95312-1.457 2.3438-1.2188 3.7031l0.67188 4.0469c0.078125 0.40625-0.089844 0.82031-0.42188 1.0586-0.33594 0.24219-0.78125 0.26953-1.1406 0.066406l-3.6406-1.9219c-1.2188-0.64062-2.6719-0.64062-3.8906 0l-3.6406 1.8906c-0.35938 0.20312-0.80469 0.17578-1.1406-0.066406-0.33203-0.23828-0.5-0.65234-0.42188-1.0586l0.71875-4.0469c0.23828-1.3594-0.20703-2.75-1.1875-3.7188l-2.9375-2.875c-0.29297-0.28125-0.39844-0.70703-0.26562-1.0938 0.11719-0.39844 0.46094-0.6875 0.875-0.73438l4.0625-0.57812c1.3516-0.20312 2.5195-1.0547 3.125-2.2812l1.8438-3.6719c0.17188-0.37109 0.54297-0.60938 0.95312-0.60938 0.41406-0.007812 0.79688 0.23047 0.96875 0.60938l1.7969 3.6875c0.60547 1.2305 1.7695 2.0859 3.125 2.2969l4.0625 0.60938c0.40234 0.0625 0.73438 0.34766 0.85938 0.73438 0.14453 0.375 0.066406 0.79688-0.20312 1.0938z"/>
</svg>